<?xml version="1.0" encoding="UTF-8"?>
<!DOCTYPE svg PUBLIC "-//W3C//DTD SVG 1.1//EN" "http://www.w3.org/Graphics/SVG/1.1/DTD/svg11.dtd">
<!-- Creator: CorelDRAW X8 -->
<svg xmlns="http://www.w3.org/2000/svg" xml:space="preserve" width="100mm" version="1.1" style="shape-rendering:geometricPrecision; text-rendering:geometricPrecision; image-rendering:optimizeQuality; fill-rule:evenodd; clip-rule:evenodd"
viewBox="0 0 21956 2780"
 xmlns:xlink="http://www.w3.org/1999/xlink">
 <defs>
  <style type="text/css">
   <![CDATA[
    .fil0 {fill:#AD1D3F;fill-rule:nonzero}
   ]]>
  </style>
 </defs>
 <g id="Layer_x0020_1">
  <metadata id="CorelCorpID_0Corel-Layer"/>
  <path class="fil0" d="M1501 201c-123,-61 -314,-119 -563,-119 -566,0 -904,331 -904,761 0,341 246,586 641,757 290,126 417,239 417,426 0,195 -147,328 -427,328 -211,0 -430,-65 -566,-147l-99 423c123,75 385,147 645,147 610,0 955,-335 955,-792 0,-344 -188,-586 -607,-774 -321,-147 -451,-232 -451,-420 0,-146 120,-290 386,-290 215,0 375,65 467,113l106 -413zm3306 1389c0,-550 -255,-785 -586,-785 -212,0 -406,85 -563,317l-7 0c-75,-194 -252,-317 -484,-317 -283,0 -451,157 -539,293l-10 0 -24 -255 -430 0c7,167 14,348 14,570l0 1329 494 0 0 -1145c0,-253 164,-383 304,-383 198,0 269,181 269,406l0 1122 495 0 0 -1152c0,-267 157,-376 297,-376 201,0 276,181 276,454l0 1074 494 0 0 -1152zm2086 6c0,-416 -160,-791 -751,-791 -296,0 -532,85 -658,160l96 328c122,-75 293,-130 467,-130 276,0 341,143 341,331 -604,0 -1037,229 -1037,716 0,307 218,570 570,570 211,0 395,-85 505,-235l10 0 30 197 454 0c-20,-116 -27,-283 -27,-450l0 -696zm-491 495c0,242 -198,327 -318,327 -126,0 -238,-78 -238,-259 0,-276 283,-341 556,-341l0 273zm2198 -1279c-34,-7 -65,-10 -113,-10 -177,0 -382,126 -471,371l-13 0 -21 -330 -433 0c7,170 14,358 14,593l0 1306 505 0 0 -982c0,-324 174,-477 402,-477 51,0 92,3 130,10l0 -481zm581 31l-249 0 0 371 249 0 0 877c0,211 10,686 556,686 147,0 269,-18 338,-45l-7 -385c-51,10 -92,17 -164,17 -154,0 -225,-96 -225,-324l0 -826 419 0 0 -371 -419 0 0 -495 -498 147 0 348zm3081 1429c-102,44 -269,75 -426,75 -474,0 -778,-317 -778,-911 0,-634 348,-931 781,-931 181,0 318,41 420,85l99 -409c-75,-41 -259,-99 -543,-99 -695,0 -1285,464 -1285,1381 0,778 436,1314 1224,1314 270,0 481,-52 580,-99l-72 -406zm2256 -665c0,-560 -266,-805 -603,-805 -164,0 -372,71 -509,269l-7 0 0 -1071 -504 0 0 2742 504 0 0 -1152c0,-284 195,-372 321,-372 218,0 293,187 293,430l0 1094 505 0 0 -1135zm1462 -805c-516,0 -901,361 -901,999 0,617 368,979 880,979 423,0 887,-280 887,-1003 0,-576 -334,-975 -866,-975zm354 985c0,338 -129,621 -368,621 -246,0 -375,-280 -375,-617 0,-290 99,-618 378,-618 260,0 365,318 365,614zm1618 -1463c0,-157 -109,-269 -272,-269 -157,0 -270,112 -270,269 0,154 109,270 270,270 156,0 272,-106 272,-270zm-17 519l-504 0 0 1899 504 0 0 -1899zm1895 1473c-82,38 -181,61 -307,61 -290,0 -505,-214 -505,-586 0,-335 184,-590 501,-590 140,0 232,30 297,61l82 -385c-82,-34 -232,-72 -396,-72 -627,0 -996,437 -996,1006 0,604 362,966 918,966 201,0 375,-41 460,-82l-54 -379zm1959 3c-130,45 -276,79 -464,79 -273,0 -505,-130 -518,-454l1135 0c11,-54 14,-126 14,-201 0,-614 -300,-941 -761,-941 -556,0 -869,470 -869,1016 0,590 334,959 921,959 235,0 457,-41 614,-110l-72 -348zm-982 -726c13,-188 116,-440 358,-440 249,0 327,242 324,440l-682 0z"/>
 </g>
</svg>
